<svg width="1200" height="630" viewBox="0 0 1200 630" fill="none" xmlns="http://www.w3.org/2000/svg">
  <rect width="1200" height="630" fill="#050506"/>
  <g opacity="0.24">
    <path d="M0 90H1200M0 180H1200M0 270H1200M0 360H1200M0 450H1200M0 540H1200" stroke="white"/>
    <path d="M120 0V630M240 0V630M360 0V630M480 0V630M600 0V630M720 0V630M840 0V630M960 0V630M1080 0V630" stroke="white"/>
  </g>
  <circle cx="972" cy="106" r="210" fill="#22D3EE" opacity="0.16"/>
  <circle cx="92" cy="552" r="220" fill="#34D399" opacity="0.12"/>
  <rect x="728" y="126" width="328" height="356" rx="32" fill="#08090A" stroke="#22D3EE" stroke-width="8"/>
  <path d="M803 243C803 198 840 162 885 162H917C962 162 999 198 999 243V289C999 343 955 387 901 387C847 387 803 343 803 289V243Z" fill="#071113" stroke="#34D399" stroke-width="8"/>
  <circle cx="868" cy="269" r="10" fill="#E0F2FE"/>
  <circle cx="932" cy="269" r="10" fill="#E0F2FE"/>
  <path d="M870 322C889 336 913 336 931 322" stroke="#22D3EE" stroke-width="8" stroke-linecap="round"/>
  <rect x="760" y="420" width="264" height="20" rx="10" fill="#22D3EE" opacity="0.35"/>
  <rect x="760" y="452" width="178" height="20" rx="10" fill="#A78BFA" opacity="0.35"/>
  <text x="88" y="210" fill="#F4F4F5" font-family="Inter, Arial, sans-serif" font-size="72" font-weight="700">AI Face Behavior</text>
  <text x="88" y="296" fill="#F4F4F5" font-family="Inter, Arial, sans-serif" font-size="72" font-weight="700">Dashboard</text>
  <text x="92" y="364" fill="#A1A1AA" font-family="Inter, Arial, sans-serif" font-size="28">Webcam, face tracking, realtime metrics and intelligent insights.</text>
  <text x="92" y="520" fill="#67E8F9" font-family="Inter, Arial, sans-serif" font-size="26">Desenvolvido por Matheus Siqueira</text>
  <text x="92" y="560" fill="#D4D4D8" font-family="Inter, Arial, sans-serif" font-size="22">www.matheussiqueira.dev</text>
</svg>
